<svg viewBox="0 0 512 512" xmlns="http://www.w3.org/2000/svg">
    <path d="m211 165c0-92.519531-46.128906-165-105-165s-106 72.480469-106 165 47.128906 165 106 165 105-72.480469 105-165zm-150 0c0-58.519531 23.9375-98.175781 41.222656-104.296875l5.988282-2.125 5.683593 2.828125c12.539063 6.226562 37.105469 44.136719 37.105469 103.59375 0 55.78125-21.929688 93.558594-37.484375 102.554688l-7.515625 4.347656-7.515625-4.347656c-15.554687-8.996094-37.484375-46.773438-37.484375-102.554688zm0 0"/>
    <path d="m106 231.265625c.015625.023437.027344.066406.042969.089844 8.292969-15.015625 14.957031-38.21875 14.957031-66.355469 0-27.234375-6.480469-51.394531-14.839844-67.074219v.003907c-.039062-.070313-.078125-.183594-.117187-.253907-.015625.027344-.027344.066407-.042969.09375v.492188c-6.316406 11.476562-15 33.546875-15 66.738281 0 32.445312 8.304688 54.316406 15 66.195312zm0 0"/>
    <path d="m240 475.628906 31 24.359375 37.5-30 37.5 30 37.5-30 37.5 30 37.5-30 53.5 42.011719c0-105.886719 0-250.574219 0-347 0-92.519531-47.128906-165-106-165h-226.242188c37.351563 33.925781 61.242188 93.78125 61.242188 165s-23.890625 131.074219-61.242188 165h60.242188zm0 0"/>
</svg>