<?xml version="1.0" encoding="utf-8"?>
<!-- Generator: Adobe Illustrator 24.1.1, SVG Export Plug-In . SVG Version: 6.00 Build 0)  -->
<svg version="1.1" id="Layer_1" xmlns="http://www.w3.org/2000/svg" xmlns:xlink="http://www.w3.org/1999/xlink" x="0px" y="0px"
	 viewBox="0 0 64 64" style="enable-background:new 0 0 64 64;" xml:space="preserve">
<g>
	<g>
		<path id="Shape" d="M21.4,41.5c-4.9-2.6-11.1-0.3-14,5C6,49,5.7,51.9,6.3,54.7c0.6,2.7,2.3,4.9,4.7,6.2c1.3,0.7,2.8,1.1,4.3,1.1
			c1.2,0,2.3-0.2,3.5-0.6c2.7-1,4.9-2.9,6.2-5.5L32,42.8l6.9,13c1.3,2.5,3.5,4.5,6.2,5.5c1.1,0.4,2.3,0.6,3.5,0.6
			c1.5,0,3-0.4,4.3-1.1c2.4-1.3,4.1-3.6,4.7-6.2c0.7-2.8,0.3-5.7-1.1-8.2c-2.8-5.4-9.1-7.6-14-5l-0.9,0.5L21.1,3.1
			c-0.5-1-1.7-1.3-2.7-0.8c-1.6,0.9-2.9,2.4-3.4,4.1c-0.6,1.8-0.4,3.7,0.5,5.3l11.4,21.5l-4.6,8.7L21.4,41.5z M16.9,7
			c0.4-1.3,1.3-2.3,2.4-2.9l21.1,39.7c0.1,0.2,0.3,0.4,0.6,0.5c0.3,0.1,0.5,0,0.8-0.1l1.8-0.9c3.9-2.1,9-0.2,11.3,4.2
			c1.1,2.1,1.4,4.5,0.9,6.8c-0.5,2.1-1.8,3.9-3.7,4.9c-1.9,1-4.2,1.1-6.2,0.3c-2.2-0.8-4-2.4-5.1-4.5L17.2,10.8
			C16.6,9.6,16.5,8.2,16.9,7L16.9,7z M23,44.2c0.3-0.1,0.5-0.3,0.6-0.5l4.5-8.4l2.8,5.3l-7.6,14.2c-1.1,2.1-2.9,3.7-5.1,4.5
			c-2,0.8-4.3,0.7-6.2-0.3c-1.9-1-3.3-2.8-3.7-4.9c-0.5-2.3-0.2-4.7,0.9-6.8c2.3-4.4,7.4-6.3,11.3-4.2l1.8,0.9
			C22.5,44.3,22.7,44.3,23,44.2L23,44.2z"/>
		<path id="Shape_1_" d="M19.5,45c-1.5-0.8-3.3-0.8-4.8-0.1c-1.6,0.7-3,1.9-3.8,3.5c-1.8,3.4-0.9,7.4,2,9c0.8,0.4,1.6,0.6,2.5,0.6
			c0.8,0,1.6-0.2,2.3-0.5c1.6-0.7,3-1.9,3.8-3.5l1.9-3.5c0.4-0.7,0.5-1.5,0.2-2.3c-0.2-0.8-0.8-1.4-1.5-1.8L19.5,45z M21.9,49.5
			L20,53.1c-0.6,1.2-1.6,2.1-2.8,2.6c-1,0.4-2.1,0.4-3.1-0.1c-1.9-1-2.5-3.9-1.2-6.3c0.6-1.2,1.6-2.1,2.8-2.6
			c0.7-0.3,1.4-0.4,2.2-0.3c0.3,0,0.6,0.2,0.9,0.3l2.7,1.4c0.2,0.1,0.4,0.3,0.5,0.6C22.1,49,22,49.3,21.9,49.5L21.9,49.5z"/>
		<path id="a" d="M38.3,28.8c0.7,0,1.4-0.4,1.8-1.1l8.5-16c0.9-1.6,1.1-3.6,0.5-5.3c-0.5-1.8-1.8-3.3-3.4-4.1
			c-1-0.5-2.2-0.1-2.7,0.8l-9.3,17.4c-0.3,0.6-0.3,1.3,0,1.9l2.8,5.3C36.8,28.4,37.5,28.8,38.3,28.8z M35.1,21.5L44.4,4
			c1.2,0.6,2.1,1.7,2.4,3c0.4,1.3,0.3,2.6-0.4,3.8l-8.5,16v0L35.1,21.5z"/>
		<path d="M42.5,54c0.8,1.6,2.2,2.8,3.8,3.5c0.7,0.3,1.5,0.5,2.3,0.5c0.9,0,1.7-0.2,2.5-0.6c1.5-0.8,2.5-2.2,2.8-3.9
			c0.7-3.6-1.2-7.2-4.6-8.6c-1.5-0.7-3.3-0.6-4.8,0.1l-2.6,1.4c-0.7,0.4-1.2,1-1.5,1.8c-0.2,0.8-0.2,1.6,0.2,2.3L42.5,54z
			 M42.4,49.5c-0.3-0.5-0.1-1.1,0.4-1.4l2.6-1.4c1-0.5,2.1-0.5,3.1-0.1c2.4,1.1,3.8,3.7,3.4,6.4c-0.2,1.1-0.8,2-1.8,2.5
			c-1,0.5-2.1,0.5-3.1,0.1c-1.2-0.5-2.2-1.4-2.8-2.6L42.4,49.5z"/>
	</g>
</g>
</svg>
