<?xml version="1.0" encoding="UTF-8"?>
<svg width="64" height="64" viewBox="0 0 64 64" xmlns="http://www.w3.org/2000/svg">
<g fill="none" fill-rule="evenodd">
<g fill="#000" fill-rule="nonzero">
<path id="Shape" d="m15.4 39.468c-4.865-2.583-11.146-0.333-14 5.015-1.3604 2.5062-1.7434 5.4278-1.075 8.2 0.61595 2.6577 2.3447 4.9222 4.746 6.217 1.3378 0.71184 2.8306 1.0828 4.346 1.08 1.1798-0.0045809 2.3498-0.21542 3.457-0.623 2.669-0.99489 4.8742-2.9442 6.189-5.471l6.937-13.059 6.938 13.049c1.3147 2.5274 3.5193 4.4779 6.188 5.475 1.1066 0.40894 2.2763 0.62049 3.456 0.625 1.5169 0.0024637 3.011-0.36917 4.35-1.082 2.4003-1.295 4.1282-3.5591 4.744-6.216 0.6667-2.7698 0.28335-5.6883-1.076-8.192-2.848-5.354-9.127-7.6-14-5.017l-0.882 0.469-20.652-38.851c-0.51916-0.97171-1.7264-1.3406-2.7-0.825-1.6422 0.86399-2.8675 2.3525-3.4 4.13-0.5555 1.775-0.37201 3.699 0.509 5.337l11.425 21.506-4.626 8.7zm-4.528-34.491c0.38001-1.2697 1.2551-2.3329 2.428-2.95l21.127 39.733c0.12437 0.2347 0.33701 0.41028 0.591 0.488 0.2536 0.075579 0.52671 0.049022 0.761-0.074l1.766-0.939c3.895-2.074 8.96-0.192 11.289 4.191 1.1267 2.0674 1.4474 4.479 0.9 6.769-0.46362 2.1137-1.8319 3.9172-3.7425 4.933-1.9106 1.0159-4.171 1.1416-6.1825 0.34395-2.2041-0.82801-4.0232-2.4433-5.106-4.534l-23.47-44.148c-0.6282-1.1707-0.75832-2.5452-0.361-3.813zm6.11 37.271c0.25382-0.077483 0.46642-0.25268 0.591-0.487l4.462-8.4 2.836 5.339-7.571 14.242c-1.0833 2.0901-2.9034 3.7042-5.108 4.53-2.0112 0.79734-4.271 0.67211-6.1819-0.34258-1.9108-1.0147-3.2802-2.8167-3.7461-4.9294-0.54809-2.2916-0.22744-4.705 0.9-6.774 2.337-4.375 7.4-6.255 11.3-4.189l1.76 0.94c0.23342 0.12268 0.50586 0.1482 0.758 0.071z"/>
<path id="Shape" d="m13.518 43c-1.4934-0.76992-3.2546-0.82466-4.793-0.149-1.6347 0.69303-2.9757 1.9357-3.791 3.513-1.812 3.408-0.91 7.444 2.01 9 0.76746 0.40795 1.6239 0.6199 2.493 0.617 0.78973-0.0056411 1.5709-0.16458 2.3-0.468 1.635-0.6926 2.9761-1.9354 3.791-3.513l1.878-3.531c0.37388-0.70241 0.45338-1.5246 0.22102-2.2856-0.23236-0.76104-0.75755-1.3986-1.46-1.7724zm2.123 4.526-1.878 3.532c-0.59587 1.1641-1.5795 2.0837-2.781 2.6-0.99019 0.44643-2.1288 0.42329-3.1-0.063-1.945-1.034-2.482-3.857-1.182-6.295 0.59555-1.164 1.5788-2.0836 2.78-2.6 0.48928-0.20468 1.0137-0.31234 1.544-0.317 0.54173-0.0034104 1.0759 0.12713 1.555 0.38l2.65 1.408c0.23487 0.12477 0.41036 0.33795 0.48768 0.59242 0.077315 0.25446 0.050082 0.52925-0.075679 0.76358z"/>
<path id="a" d="m32.262 26.79c0.7392-3.197e-4 1.4179-0.40834 1.765-1.061l8.507-16c0.87805-1.6358 1.0636-3.5553 0.515-5.329-0.53487-1.7883-1.7697-3.2846-3.424-4.149-0.97434-0.5085-2.1764-0.13226-2.687 0.841l-9.272 17.432c-0.31112 0.58628-0.31112 1.2887 0 1.875l2.828 5.329c0.34729 0.654 1.0275 1.0626 1.768 1.062zm-2.829-7.328 9.267-17.437c1.1775 0.61804 2.055 1.686 2.433 2.961 0.39147 1.2667 0.25929 2.6374-0.367 3.806l-8.5 16v-5e-3z"/>
<path d="m36.473 52c0.81567 1.5768 2.1566 2.819 3.791 3.512 0.72914 0.30342 1.5103 0.46236 2.3 0.468 0.86881 0.0027738 1.7248-0.20917 2.492-0.617 1.4719-0.80893 2.5005-2.2384 2.8-3.891 0.65503-3.588-1.2421-7.1558-4.583-8.619-1.5372-0.67562-3.2971-0.62161-4.79 0.147l-2.648 1.408c-0.70264 0.37361-1.228 1.0111-1.4606 1.7721-0.23256 0.76105-0.1532 1.5833 0.2206 2.2859zm-0.113-4.472c-0.25892-0.48768-0.073587-1.0929 0.414-1.352l2.649-1.408c0.97088-0.48772 2.1101-0.51088 3.1-0.063 2.4461 1.0984 3.8362 3.7153 3.377 6.357-0.15701 1.081-0.81921 2.0227-1.7834 2.536-0.96416 0.51338-2.1151 0.53713-3.0996 0.063971-1.2016-0.51616-2.1853-1.4358-2.781-2.6z"/>
</g>
</g>
</svg>
